<?xml version="1.0" standalone="no"?>
<!DOCTYPE svg PUBLIC "-//W3C//DTD SVG 20010904//EN"
 "http://www.w3.org/TR/2001/REC-SVG-20010904/DTD/svg10.dtd">
<svg version="1.0" xmlns="http://www.w3.org/2000/svg"
 width="1024.000000pt" height="1024.000000pt" viewBox="0 0 1024.000000 1024.000000"
 preserveAspectRatio="xMidYMid meet">

<g transform="translate(0.000000,1024.000000) scale(0.100000,-0.100000)"
fill="#000000" stroke="none">
<path d="M4018 8410 c-18 -11 -18 -11 -651 -925 -638 -921 -712 -1027 -725
-1058 -8 -19 -12 -93 -12 -228 0 -218 6 -245 55 -267 19 -9 229 -12 834 -12
l808 0 7 -42 c21 -134 113 -354 206 -494 230 -343 559 -570 953 -656 145 -32
456 -32 597 -1 563 125 1005 555 1143 1113 20 82 21 113 24 833 l4 747 -26 10
c-15 6 -135 10 -276 10 -276 0 -307 -5 -327 -56 -8 -21 -12 -223 -15 -699 l-3
-670 -27 -90 c-35 -112 -82 -202 -150 -286 -122 -152 -247 -233 -433 -279 -75
-19 -106 -22 -223 -17 -81 3 -160 11 -196 21 -219 61 -410 233 -505 454 -69
159 -70 176 -70 813 0 373 -4 586 -11 619 -15 69 -62 129 -128 163 -54 27 -55
27 -263 27 -222 0 -265 -7 -287 -48 -7 -14 -11 -166 -11 -466 l0 -446 -470 0
c-258 0 -470 3 -470 7 0 4 8 16 18 27 16 17 401 565 561 796 86 124 296 426
459 659 198 282 262 379 262 397 0 8 -9 23 -20 34 -19 19 -33 20 -317 20 -177
0 -305 -5 -315 -10z"/>
<path d="M5170 6450 l0 -400 258 0 257 0 23 -35 c69 -100 203 -141 328 -98 34
11 66 34 106 75 l58 58 70 0 c126 0 166 45 158 175 -12 186 -173 332 -423 385
-84 18 -120 33 -229 92 -205 114 -320 147 -508 148 l-98 0 0 -400z"/>
<path d="M2374 4073 c-14 -21 -158 -238 -320 -483 l-294 -445 0 -107 0 -108
345 0 345 0 0 -145 0 -145 135 0 135 0 0 145 0 145 58 0 57 0 -3 120 -3 120
-55 0 -54 0 0 470 0 470 -160 0 -160 0 -26 -37z m78 -598 l-3 -305 -195 0
-196 0 18 28 c94 142 281 433 320 499 27 45 51 82 54 83 3 0 4 -137 2 -305z"/>
<path d="M4960 3375 l0 -735 125 0 125 0 0 735 0 735 -125 0 -125 0 0 -735z"/>
<path d="M3940 3360 l0 -720 135 0 135 0 0 295 0 295 270 0 270 0 0 120 0 120
-270 0 -270 0 0 180 0 180 310 0 310 0 0 125 0 125 -445 0 -445 0 0 -720z"/>
<path d="M7880 3840 l0 -150 -90 0 -90 0 0 -105 0 -105 89 0 89 0 4 -307 c5
-354 7 -368 90 -458 83 -91 220 -124 372 -91 l76 17 0 105 0 106 -32 -9 c-64
-16 -154 -10 -185 13 -63 47 -65 59 -70 355 l-4 269 145 0 146 0 0 105 0 105
-145 0 -146 0 2 148 1 147 -126 3 -126 3 0 -151z"/>
<path d="M5766 3714 c-182 -44 -332 -198 -381 -389 -18 -69 -20 -211 -4 -287
32 -155 148 -304 289 -370 92 -44 156 -58 264 -58 164 0 290 44 396 138 l55
49 -68 70 -68 71 -64 -43 c-73 -49 -132 -65 -240 -65 -159 0 -267 80 -310 228
l-6 22 400 0 401 0 0 98 c0 271 -146 474 -387 537 -71 18 -199 18 -277 -1z
m270 -232 c49 -25 100 -80 125 -136 34 -75 50 -71 -251 -71 -308 0 -290 -7
-244 90 28 61 78 107 139 130 57 21 178 15 231 -13z"/>
<path d="M6970 3714 c-98 -26 -161 -63 -240 -143 -81 -82 -117 -144 -145 -251
-24 -93 -16 -260 17 -350 85 -231 281 -360 548 -360 154 0 290 49 391 139 l53
47 -21 30 c-12 16 -42 49 -66 73 l-45 44 -60 -40 c-81 -54 -168 -77 -270 -71
-138 8 -237 76 -281 192 l-19 51 404 3 404 2 0 88 c0 48 -7 117 -14 153 -43
202 -194 358 -384 398 -73 15 -206 13 -272 -5z m275 -231 c53 -28 99 -77 124
-133 37 -80 55 -75 -255 -72 l-276 3 6 24 c23 93 92 166 186 196 45 15 171 4
215 -18z"/>
<path d="M2930 3317 c0 -394 5 -459 45 -537 56 -111 159 -165 310 -164 104 0
158 19 224 79 l41 37 0 -46 0 -46 115 0 115 0 0 525 0 525 -125 0 -125 0 0
-379 c0 -376 0 -378 -23 -412 -30 -45 -84 -71 -151 -71 -66 -1 -112 23 -141
72 -19 33 -20 54 -23 413 l-3 377 -129 0 -130 0 0 -373z"/>
</g>
</svg>
